<?xml version="1.0" encoding="utf-8"?>
<!-- Generator: Adobe Illustrator 19.0.0, SVG Export Plug-In . SVG Version: 6.00 Build 0)  -->
<svg version="1.1" id="Layer_1" xmlns="http://www.w3.org/2000/svg" xmlns:xlink="http://www.w3.org/1999/xlink" x="0px" y="0px"
	 viewBox="0 0 278 366" style="enable-background:new 0 0 278 366;" xml:space="preserve">
<style type="text/css">
	.st0{fill:#212121;}
</style>
<g id="XMLID_1_">
	<g id="XMLID_2_">
		<g id="XMLID_23_">
			<g id="XMLID_12_">
				<polygon id="XMLID_32_" class="st0" points="277.7,30.1 253.7,60.1 242.2,60.1 242.2,32.1 243.8,30.1 				"/>
				<polygon id="XMLID_31_" class="st0" points="274.5,333.1 242.2,333.1 242.2,303.1 250.3,303.1 259.9,315.1 260,314.9 				"/>
				<polygon id="XMLID_30_" class="st0" points="253.7,60.1 242.2,74.6 242.2,60.1 				"/>
				<polygon id="XMLID_29_" class="st0" points="250.3,303.1 242.2,303.1 242.2,293 				"/>
				<polygon id="XMLID_28_" class="st0" points="242.2,303.1 242.2,333.1 240.6,333.1 216.6,303.1 				"/>
				<polygon id="XMLID_27_" class="st0" points="242.2,293 242.2,303.1 216.6,303.1 192.6,273.1 226.3,273.1 				"/>
				<polygon id="XMLID_26_" class="st0" points="242.2,60.1 242.2,74.6 229.7,90.1 195.8,90.1 219.8,60.1 				"/>
				<polygon id="XMLID_25_" class="st0" points="242.2,32.1 242.2,60.1 219.8,60.1 				"/>
				<polygon id="XMLID_24_" class="st0" points="242.2,30.1 242.2,32.1 219.8,60.1 89.8,60.1 65.8,30.1 				"/>
				<polygon id="XMLID_22_" class="st0" points="240.6,333.1 69.8,333.1 93.8,303.1 216.6,303.1 				"/>
				<polygon id="XMLID_21_" class="st0" points="154.8,183.8 138,204.8 121,183.6 137.8,162.6 				"/>
				<polygon id="XMLID_20_" class="st0" points="138,204.8 83.3,273.1 49.4,273.1 121,183.6 				"/>
				<polygon id="XMLID_19_" class="st0" points="137.8,162.6 121,183.6 46.2,90.1 79.9,90.1 				"/>
				<polygon id="XMLID_17_" class="st0" points="83.3,273.1 59.3,303.1 25.4,303.1 49.4,273.1 				"/>
				<polygon id="XMLID_16_" class="st0" points="79.9,90.1 46.2,90.1 22.2,60.1 55.9,60.1 				"/>
				<polygon id="XMLID_15_" class="st0" points="59.3,303.1 35.3,333.1 1.4,333.1 25.4,303.1 				"/>
				<polygon id="XMLID_14_" class="st0" points="55.9,60.1 22.2,60.1 -0.2,32.1 1.4,30.1 31.9,30.1 				"/>
			</g>
			<g id="XMLID_13_">
			</g>
		</g>
	</g>
</g>
</svg>
