<?xml version="1.0" encoding="utf-8"?>
<!-- Generator: Adobe Illustrator 19.0.0, SVG Export Plug-In . SVG Version: 6.00 Build 0)  -->
<svg version="1.1" id="Layer_1" xmlns="http://www.w3.org/2000/svg" xmlns:xlink="http://www.w3.org/1999/xlink" x="0px" y="0px"
	 viewBox="0 0 500 500" style="enable-background:new 0 0 500 500;" xml:space="preserve">
<style type="text/css">
	.st0{fill:#14A085;}
	.st1{fill:#FFFFFF;}
</style>
<circle id="XMLID_1_" class="st0" cx="250" cy="250" r="250"/>
<g id="XMLID_2_">
	<g id="XMLID_3_">
		<g id="XMLID_23_">
			<g id="XMLID_13_">
				<polygon id="XMLID_34_" class="st1" points="331.2,338.3 340.8,350.3 319.4,350.3 319.4,330.4 324.8,330.4 331.1,338.4 				"/>
				<polygon id="XMLID_32_" class="st1" points="319.4,169.7 319.4,151.2 320.5,149.9 342.9,149.9 327.1,169.7 				"/>
				<polygon id="XMLID_31_" class="st1" points="324.8,330.4 319.4,330.4 319.4,323.8 				"/>
				<polygon id="XMLID_30_" class="st1" points="319.4,179.3 319.4,169.7 327.1,169.7 				"/>
				<polygon id="XMLID_29_" class="st1" points="319.4,151.2 319.4,169.7 304.6,169.7 				"/>
				<polygon id="XMLID_28_" class="st1" points="319.4,330.4 319.4,350.3 318.4,350.3 302.5,330.4 				"/>
				<polygon id="XMLID_27_" class="st1" points="205.4,350.3 221.3,330.4 302.5,330.4 318.4,350.3 				"/>
				<polygon id="XMLID_26_" class="st1" points="304.6,169.7 319.4,169.7 319.4,179.3 311.2,189.6 288.7,189.6 				"/>
				<polygon id="XMLID_25_" class="st1" points="308.9,310.6 319.4,323.8 319.4,330.4 302.5,330.4 286.6,310.6 				"/>
				<polygon id="XMLID_24_" class="st1" points="250.4,237.5 261.6,251.5 250.5,265.4 239.3,251.4 				"/>
				<polygon id="XMLID_22_" class="st1" points="189.8,189.6 212.1,189.6 250.4,237.5 239.3,251.4 				"/>
				<polygon id="XMLID_21_" class="st1" points="202.8,149.9 319.4,149.9 319.4,151.2 304.6,169.7 218.7,169.7 				"/>
				<polygon id="XMLID_20_" class="st1" points="214.4,310.6 191.9,310.6 239.3,251.4 250.5,265.4 				"/>
				<polygon id="XMLID_19_" class="st1" points="214.4,310.6 198.5,330.4 176.1,330.4 191.9,310.6 				"/>
				<polygon id="XMLID_17_" class="st1" points="196.2,169.7 212.1,189.6 189.8,189.6 173.9,169.7 				"/>
				<polygon id="XMLID_16_" class="st1" points="180.3,149.9 196.2,169.7 173.9,169.7 159.1,151.2 160.2,149.9 				"/>
				<polygon id="XMLID_15_" class="st1" points="198.5,330.4 182.6,350.3 160.2,350.3 176.1,330.4 				"/>
			</g>
			<g id="XMLID_14_">
			</g>
		</g>
	</g>
</g>
</svg>
