<?xml version="1.0" encoding="utf-8"?>
<!-- Generator: Adobe Illustrator 19.0.0, SVG Export Plug-In . SVG Version: 6.00 Build 0)  -->
<svg version="1.1" id="Layer_1" xmlns="http://www.w3.org/2000/svg" xmlns:xlink="http://www.w3.org/1999/xlink" x="0px" y="0px"
	 viewBox="0 0 410 75" style="enable-background:new 0 0 410 75;" xml:space="preserve">
<style type="text/css">
	.st0{fill:#14A085;}
</style>
<g id="XMLID_3_">
	<path id="XMLID_4_" class="st0" d="M0.8,1h54.1v12.9H34.6v60.3h-14V13.9H0.8V1z"/>
	<path id="XMLID_6_" class="st0" d="M60.8,4.4c0-1.6,0.8-2.6,2.4-2.6h10.5c1.5,0,2.2,1.2,2.2,2.6v8.8c0,1.5-0.8,2.3-2.2,2.3H63.2
		c-1.4,0-2.4-0.9-2.4-2.3V4.4z M61.3,21.1h14v53.1h-14V21.1z"/>
	<path id="XMLID_9_" class="st0" d="M84.3,21.1h11.2l2.8,5.7c4.7-3.4,8.5-6.5,16.5-6.5c6.8,0,11.6,2.6,13.8,6.9
		c4.7-3.5,10.8-6.9,19.1-6.9c11.7,0,15.8,8,15.8,18.7v35.2h-14V38.8c0-5-2.3-7.2-5.9-7.2c-5.3,0-9.2,1-13,4.2c0,0.4,0.1,2.6,0.1,3.1
		v35.3h-14V38.8c0-5-2.4-7.2-5.9-7.2c-5.5,0-8.4,1.4-12.5,4.5v38.1h-14V21.1z"/>
	<path id="XMLID_11_" class="st0" d="M194.2,20.7c15.4,0,22.5,1.7,22.5,19.3c0,9.5-5.2,13.4-14.8,13.4H185c0,9.5,3.6,10.1,11.2,10.1
		c8.1,0,12,0.1,19.5-1.1v9.5c-7.5,2.8-18.9,2.8-27.2,2.8c-13.5,0-17.5-7.8-17.5-27.3C171,24.6,177.4,20.7,194.2,20.7z M198.3,43.3
		c2.9,0,4.4-1.4,4.4-4c0-6.7-1-7.9-7.7-7.9c-7.4,0-10.1,0.4-10,11.9H198.3z"/>
	<path id="XMLID_14_" class="st0" d="M222.7,34.9c0-8.2,3.5-14.3,13.8-14.3c10.2,0,24.3,0.3,28.4,2.7v8.8h-24.1
		c-3.6,0-4.1,1.2-4.1,3.7v2.4c0,3.3,1.8,3.4,4.1,3.4h12.6c10.1,0,14.1,6,14.1,13.8v5.4c0,10.9-6.6,13.9-13,13.9
		c-10.1,0-25.9-0.5-29.6-2.9v-8.7H250c0.9,0,3.5-0.1,3.5-3.4v-2.5c0-2.2-0.6-3.4-3.5-3.4h-12.4c-9.4,0-14.9-4-14.9-14.3V34.9z"/>
	<path id="XMLID_16_" class="st0" d="M274.3,21.1h14v35.6c0,5.3,2.4,7.1,5.9,7.1c5.6,0,8.7-1.4,12.8-4.6V21.1h14v53.1h-11.3
		l-2.7-5.6c-5.3,3.1-8.8,6.5-16.9,6.5c-12.3,0-15.8-8.5-15.8-18.7V21.1z"/>
	<path id="XMLID_18_" class="st0" d="M330.1,21.1h11.2l2.8,5.7c4.7-3.4,8.5-6.5,16.5-6.5c6.8,0,11.6,2.6,13.8,6.9
		c4.7-3.5,10.8-6.9,19.1-6.9c11.7,0,15.8,8,15.8,18.7v35.2h-14V38.8c0-5-2.3-7.2-5.9-7.2c-5.3,0-9.2,1-13,4.2c0,0.4,0.1,2.6,0.1,3.1
		v35.3h-14V38.8c0-5-2.4-7.2-5.9-7.2c-5.5,0-8.4,1.4-12.5,4.5v38.1h-14V21.1z"/>
</g>
</svg>
